PathFileType	4	(X/Y/Z)	Kaydara																																																																																																																									
DataRate	CameraRate	NumFrames	NumMarkers	Units	OrigDataRate	OrigDataStartFrame	OrigNumFrames																																																																																																																					
30	30	7	41	mm	30	124	174																																																																																																																					
Frame#	Time	SALE_LFHD			SALE_RFHD			SALE_LBHD			SALE_RBHD			SALE_LFTShould			SALE_RFTShould			SALE_LRRShould			SALE_RRRShould			SALE_T10			SALE_STRN			SALE_TRUN			SALE_LSHO			SALE_LUPA			SALE_LELB			SALE_LFRM			SALE_LWRA			SALE_LWRB			SALE_LFIN			SALE_RSHO			SALE_RUPA			SALE_RELB			SALE_RFRM			SALE_RWRB			SALE_RFIN			SALE_LFWT			SALE_RFWT			SALE_LBWT			SALE_RBWT			SALE_LTHI			SALE_LKNE			SALE_RWRA			SALE_LSHN			SALE_LANK			SALE_LHEE			SALE_LTOE			SALE_RTHI			SALE_RKNE			SALE_RSHN			SALE_RANK			SALE_RHEE			SALE_RTOE		
		X1	Y1	Z1	X2	Y2	Z2	X3	Y3	Z3	X4	Y4	Z4	X5	Y5	Z5	X6	Y6	Z6	X7	Y7	Z7	X8	Y8	Z8	X9	Y9	Z9	X10	Y10	Z10	X11	Y11	Z11	X12	Y12	Z12	X13	Y13	Z13	X14	Y14	Z14	X15	Y15	Z15	X16	Y16	Z16	X17	Y17	Z17	X18	Y18	Z18	X19	Y19	Z19	X20	Y20	Z20	X21	Y21	Z21	X22	Y22	Z22	X23	Y23	Z23	X24	Y24	Z24	X25	Y25	Z25	X26	Y26	Z26	X27	Y27	Z27	X28	Y28	Z28	X29	Y29	Z29	X30	Y30	Z30	X31	Y31	Z31	X32	Y32	Z32	X33	Y33	Z33	X34	Y34	Z34	X35	Y35	Z35	X36	Y36	Z36	X37	Y37	Z37	X38	Y38	Z38	X39	Y39	Z39	X40	Y40	Z40	X41	Y41	Z41
																																																																																																																												
109	4.1	193.37719	1597.53708	1384.74869	60.45511	1606.48392	1384.53735	187.225	1566.539	1252.57568	58.96845	1573.8591	1260.2887	184.8855	1335.55237	1365.14236	46.56672	1335.03387	1361.06171	180.09029	1392.90436	1251.41983	30.70374	1398.74725	1254.01894	103.19897	1242.2422	1183.92258	108.34356	1264.73572	1411.20697	104.1383	1178.80676	1452.20001	297.94445	1361.42868	1296.21857	334.89727	1151.01135	1252.75612	312.63432	1044.17992	1222.86644	350.8152	939.93782	1219.52698	320.3941	787.21451	1278.26904	365.11909	792.59544	1214.65683	377.35149	738.68378	1249.2141	-59.17083	1366.66031	1298.09219	-97.8106	1131.18088	1265.14687	-124.17917	1038.49937	1327.31842	-114.97003	925.96512	1358.39951	-128.62358	816.31592	1453.32336	-134.12004	800.90408	1518.76907	229.31538	947.53998	1403.34946	-41.09938	903.73299	1360.83466	197.84945	980.72586	1222.74681	23.57211	955.48477	1194.02939	256.86661	622.54089	1332.49496	213.3362	485.32745	1454.375	-81.5919	849.88663	1502.14493	204.68643	275.18454	1463.4967	198.34724	89.75898	1419.23416	163.81153	39.90544	1351.71967	148.84081	31.13637	1580.54413	2.14626	636.9099	1247.40501	-11.11211	487.21046	1378.19244	36.54333	317.63134	1255.84	-12.18776	240.6953	1006.77788	-13.90105	95.08086	982.14531	45.96022	272.94018	934.92371
110	4.133	194.54273	1602.15088	1430.07111	61.76624	1611.37726	1429.93027	188.87451	1570.45609	1298.09372	60.59865	1577.75238	1305.15793	184.89876	1338.24234	1410.20981	46.09609	1337.65915	1405.02975	183.31362	1398.55423	1297.73941	33.31788	1403.92593	1298.35938	107.63515	1248.78014	1226.2764	107.72864	1266.13533	1453.5881	102.42642	1180.32875	1494.60083	300.20468	1365.8786	1344.58023	341.0527	1153.45406	1308.14255	321.3348	1045.27344	1280.37781	359.86748	940.99152	1283.52631	329.63551	792.00111	1350.44342	375.24906	793.37662	1287.09991	388.63148	743.38379	1325.86884	-57.47274	1370.38483	1340.68222	-93.44851	1134.59053	1301.51001	-120.15697	1040.71732	1364.08264	-110.83858	927.36404	1387.10754	-124.96529	810.13283	1473.17612	-130.08019	789.79065	1537.56027	230.06674	953.21465	1444.29062	-40.26208	910.1207	1400.77972	199.77051	986.45546	1263.59268	25.82702	960.82634	1234.58061	258.05971	628.82397	1356.41373	216.00096	483.31097	1467.88315	-78.22204	840.65109	1524.87534	206.3064	273.89778	1469.81552	198.93766	89.91478	1420.47089	164.17154	40.11235	1351.42471	149.78247	31.08804	1579.83292	4.46006	637.68936	1313.8652	-10.39209	502.88548	1462.90527	37.12985	329.31255	1352.8891	-6.34287	247.73567	1105.14603	-11.1687	100.44102	1099.01253	52.08364	270.13197	1030.28412
111	4.167	194.93221	1605.77515	1475.53894	62.11035	1614.60175	1474.70383	190.06207	1574.8465	1343.36105	61.74803	1581.72485	1349.58588	184.8605	1341.52344	1454.00848	46.53078	1340.83344	1446.33591	186.12108	1403.52997	1342.07291	35.80448	1408.69766	1340.7132	111.39695	1254.39346	1267.91214	107.31174	1268.58932	1495.05203	101.00017	1182.28622	1535.00305	301.92986	1369.71207	1391.29364	346.45016	1155.87784	1363.79379	330.14217	1046.14006	1339.24316	368.43346	942.08694	1350.44571	335.27794	796.4286	1423.11371	385.29953	795.50652	1364.25262	398.44715	749.7892	1407.15805	-55.97738	1374.62341	1381.39069	-90.35926	1138.80135	1337.73071	-115.87788	1043.73093	1397.59064	-106.66047	929.56398	1413.17505	-123.08701	806.22818	1488.98468	-127.47752	780.17273	1552.36252	234.55601	954.99496	1482.72919	-37.54217	917.77252	1443.9743	200.14053	990.21721	1302.99423	25.5505	967.78618	1276.73256	257.06182	633.30093	1377.64832	218.20211	480.71217	1480.40985	-76.09497	831.30844	1542.74094	206.62601	272.31125	1475.76767	199.12064	89.7759	1421.13556	163.97161	40.54177	1351.4299	148.56049	31.15856	1580.1329	0.5237	646.17477	1375.46616	-9.97256	524.19807	1540.9993	39.38996	341.05019	1448.23425	-2.11762	238.89713	1208.89374	-8.63219	94.76159	1224.99878	56.86664	248.53859	1128.16162
112	4.2	194.69078	1607.96082	1521.02081	61.87243	1615.96039	1519.28131	190.97523	1579.10461	1388.34549	62.61451	1585.0351	1393.48358	185.50144	1344.63181	1495.99869	47.88314	1344.22241	1487.43256	188.3009	1406.81656	1384.30099	38.0218	1411.93558	1381.59958	114.23335	1257.91946	1308.68591	107.77018	1271.68259	1535.82855	101.37518	1185.23827	1575.44083	303.07236	1373.23196	1435.13702	350.94193	1159.26468	1419.85153	338.02402	1047.80968	1398.97614	376.17031	944.97047	1419.73969	340.00427	803.31688	1498.98651	394.06628	799.74838	1443.87329	405.66128	758.35007	1490.87463	-54.57054	1378.67523	1421.21429	-87.49584	1144.29214	1373.46817	-112.30925	1047.22092	1428.81256	-103.62391	933.04077	1437.33429	-120.97012	804.32793	1503.34808	-126.40663	772.08733	1563.77655	240.19608	954.09927	1519.89349	-33.20589	922.91168	1489.29916	198.77232	991.83884	1341.38947	23.53009	971.82999	1319.41254	253.36697	636.80103	1395.93994	220.82611	477.74143	1490.07187	-75.43307	824.26155	1558.71033	207.65028	271.36967	1480.57465	198.08586	89.73504	1420.83252	162.74448	41.05021	1351.43845	149.64368	31.18081	1579.46823	-9.62226	651.85478	1433.57117	-9.32488	545.59429	1611.47491	42.49589	350.44746	1539.1127	2.72824	212.93156	1315.13367	-6.61931	79.43436	1360.87753	61.08094	208.08073	1231.68396
113	4.233	194.25493	1607.7446	1565.97137	61.39334	1614.73007	1563.4436	191.57536	1581.58646	1432.80518	63.25698	1586.65726	1437.79266	186.73141	1346.9101	1537.28287	48.96044	1346.28571	1528.16895	189.2993	1407.32925	1425.46631	39.55028	1412.64297	1421.9635	116.37673	1258.88374	1349.63043	109.12486	1274.14497	1576.73965	103.23568	1187.77733	1616.76254	303.87596	1375.31036	1476.93649	354.41044	1161.78825	1473.2254	344.88163	1049.28802	1458.09357	382.71179	948.32184	1489.58908	343.28873	811.12839	1575.53879	401.54247	805.57869	1524.65515	410.60898	767.89009	1575.03555	-53.38333	1380.28534	1461.28006	-84.07644	1148.04169	1407.43073	-110.66037	1049.15581	1459.83154	-102.88796	935.40443	1461.12762	-122.94557	802.69226	1517.22198	-127.05688	763.24287	1573.8945	245.41641	950.61516	1556.14685	-30.16062	926.01608	1534.04846	196.43993	991.38725	1379.54422	20.6184	974.84123	1363.03574	246.64907	639.37145	1414.4577	222.72169	474.66503	1499.66064	-77.30715	817.4852	1574.38126	207.73682	269.78001	1485.52277	197.29313	90.00309	1421.50589	161.23842	42.34279	1350.793	148.67455	31.07895	1580.04623	-22.74432	656.28723	1488.41553	-7.32892	562.78133	1673.7738	44.78556	355.27225	1624.68124	6.34379	176.29786	1431.31317	3.92019	64.4819	1509.47739	64.51106	154.05854	1348.33954
114	4.267	193.86583	1605.37048	1610.0647	60.96929	1611.39679	1606.99081	191.96388	1581.14365	1476.62125	63.53422	1585.16769	1480.99518	188.02773	1346.50299	1578.45627	50.39842	1345.45807	1569.72687	189.89185	1405.05371	1466.24893	40.38592	1410.41687	1463.8205	117.50708	1256.5107	1390.68146	111.14829	1273.72719	1618.69858	106.0485	1187.38503	1658.9534	304.63041	1374.75769	1517.94922	357.66342	1162.1981	1525.12741	350.30891	1048.7207	1516.87225	387.95582	950.20966	1557.18826	346.37524	819.8069	1651.97433	406.92696	810.94681	1604.44199	413.55877	777.13371	1658.10638	-52.52053	1378.367	1503.04626	-82.4011	1148.45139	1442.37427	-110.83876	1047.78214	1489.90295	-103.41281	934.40659	1485.23407	-125.61716	798.93639	1532.26532	-129.51192	753.53645	1584.47464	248.93667	944.85909	1592.22397	-27.28945	926.90285	1579.83948	193.73173	989.8317	1418.57147	17.7869	976.35124	1407.48962	239.82124	641.12755	1434.31351	222.05048	471.23936	1512.29584	-81.1775	809.79225	1591.76849	207.48512	268.21007	1491.96396	196.04181	90.03173	1421.68793	158.18662	43.808	1351.03745	150.27429	30.48159	1579.39026	-33.16886	660.17624	1539.37576	-5.01358	570.22266	1724.47968	47.50119	355.5864	1703.90518	8.66653	135.56729	1558.1218	11.20269	51.87259	1659.80331	66.36068	96.15784	1479.89426
115	4.3	193.43708	1601.04034	1653.0484	60.56138	1606.03912	1649.96918	191.72377	1577.33246	1519.54544	63.33224	1580.43365	1523.89862	189.46636	1342.48306	1619.89761	51.49309	1340.73486	1612.5618	190.07404	1400.34088	1507.27097	40.51682	1405.34393	1506.9281	117.5423	1251.61865	1433.05954	113.64786	1269.30176	1661.10336	109.69254	1182.50305	1700.59952	305.31918	1371.19171	1558.6554	360.12306	1159.9807	1575.23834	354.32365	1045.5278	1573.57132	391.57902	950.1963	1622.3407	348.77689	828.52875	1727.27005	410.09701	815.51979	1681.74606	415.44769	786.27655	1738.25638	-52.00929	1372.86285	1546.49124	-81.58203	1145.74707	1478.32169	-111.93663	1043.56361	1520.13992	-105.69749	930.79247	1509.66583	-129.82704	793.39928	1548.38409	-133.90864	743.75999	1596.85135	251.03016	937.94388	1629.18213	-25.72682	924.40651	1626.1058	190.21145	986.42334	1458.8913	14.3214	974.96872	1452.92007	236.09661	641.86111	1457.49054	221.24041	468.09544	1527.75375	-86.26339	799.75021	1608.53317	205.89951	266.38464	1499.39728	193.42159	90.88902	1421.96976	153.17882	46.44092	1350.97427	150.1903	30.27578	1580.24002	-36.59457	659.87518	1583.6174	-3.98712	565.73143	1763.55621	48.13117	352.33337	1774.51935	7.17522	102.77601	1692.09961	10.88753	42.92188	1809.89624	63.01303	47.97461	1623.61603
